<?xml version="1.0" encoding="utf-8"?>
<!-- Generator: Adobe Illustrator 19.2.1, SVG Export Plug-In . SVG Version: 6.00 Build 0)  -->
<svg version="1.1" id="Layer_1" xmlns="http://www.w3.org/2000/svg" xmlns:xlink="http://www.w3.org/1999/xlink" x="0px" y="0px"
	 viewBox="0 0 612 792" style="enable-background:new 0 0 612 792;" xml:space="preserve">
<style type="text/css">
	.st0{fill:none;}
	.st1{fill:#FEFEFE;}
	.st2{fill:#FDFDFD;}
</style>
<g>
	<path class="st0" d="M113.8,578.8c0-113.1,0-226.1,0-339.2c3.2-13.8,9.9-20,24-22.4c112,0,224,0,336,0c10.4,0.7,17.6,6,22.2,15.2
		c2,4,2.2,8.2,2.2,12.5c0,103.7,0,207.4,0,311.1c0,6.1-0.2,12.3,0,18.4c0.7,13.9-11.1,27.4-26.4,27.2c-0.7,0-1.3,0-2,0
		c-109.3,0-218.6,0-327.9,0.1c-11.5,0-20-4.5-25.7-14.5C114.7,584.6,114.8,581.6,113.8,578.8z"/>
	<path class="st1" d="M113.8,578.8c1.3,0.7,1,2.1,1.3,3.2c3.8,11,13.9,18.7,25.5,19.2c1.1,0,2.1,0,3.2,0c108,0,216,0,323.9,0
		c14,0,24.7-7.3,28.6-19.3c1-2.9,1.4-5.9,1.4-9c0-109,0-218.1,0-327.1c0-14.4-8.7-24.9-23.1-27.9c-0.3-0.1-0.6-0.4-0.9-0.6
		c7.6,0,15.2,0.1,22.8-0.1c1.7,0,2.4,0.3,2,2.1c-0.1,0.5,0,1.1,0,1.6c0,125.9,0,251.7,0.1,377.6c0,3-0.7,3.7-3.7,3.7
		c-125.9-0.1-251.7-0.1-377.6,0c-3,0-3.8-0.7-3.7-3.7C114,591.9,113.8,585.4,113.8,578.8z"/>
	<path class="st2" d="M137.8,217.2c-6.7,1.9-12.8,4.5-17.5,9.9c-3.2,3.7-4.5,8.2-6.5,12.5c0-6.7,0.1-13.5-0.1-20.2
		c0-1.9,0.4-2.3,2.2-2.2C123.3,217.3,130.5,217.2,137.8,217.2z"/>
	<path class="st0" d="M320.3,388.7c8.3-11.4,18.2-20.1,31.6-24.4c26.4-8.5,56.3-0.1,72,20.3c9.2,12,13.2,26,14.7,40.7
		c1.5,15,0.6,30.1,0.7,45.2c0.1,21.6,0,43.2,0.1,64.8c0,2.8-0.6,3.6-3.5,3.5c-16.9-0.1-33.9-0.2-50.8,0c-3.3,0-3.9-1-3.9-4
		c0.1-28.8,0.1-57.6,0.1-86.4c0-6.8-0.2-13.6-2.1-20.2c-5.8-21.4-30.9-28.8-47.6-14c-7.8,6.9-11.5,15.7-11.5,26.2
		c0.1,31.3,0,62.7,0.1,94c0,3.3-0.5,4.5-4.2,4.4c-16.4-0.3-32.8-0.2-49.2,0c-3.5,0-4.6-0.7-4.6-4.5c0.2-51.5,0.2-102.9,0.3-154.4
		c0-4.1,0-8.3-0.2-12.4c-0.1-1.7,0.4-2.3,2.2-2.3c17.9,0.1,35.7,0.1,53.6,0c2.4,0,2.1,1.3,2.1,2.8
		C320.3,374.9,320.3,381.8,320.3,388.7z"/>
	<path class="st0" d="M172.2,451.6c0-27.6,0.1-55.2-0.1-82.8c0-3,0.7-3.7,3.7-3.7c16.9,0.2,33.9,0.2,50.8,0c3.1,0,3.7,0.9,3.7,3.8
		c-0.1,55.3-0.1,110.6,0,165.9c0,3.2-0.9,3.9-4,3.9c-16.8-0.2-33.6-0.2-50.4,0c-3.3,0-3.8-1.1-3.8-4
		C172.2,507.1,172.2,479.4,172.2,451.6z"/>
	<path class="st0" d="M201.4,341.6c-15.9-0.1-28-8.5-31.5-21.6c-5-18.5,7.1-35.9,26.2-37.9c5.5-0.6,10.9-0.5,16.2,1.1
		c14.5,4.1,22.9,16.9,21.4,32.3c-1.3,13.4-12.6,24.3-26.9,25.7C204.8,341.4,202.8,341.5,201.4,341.6z"/>
</g>
<text transform="matrix(1 0 0 1 -1402 -111)"><tspan x="0" y="0" style="font-family:'MyriadPro-Regular'; font-size:12px;">&lt;symbol id=&quot;icon-linkedin-square&quot; viewBox=&quot;0 0 24 28&quot;&gt;</tspan><tspan x="0" y="14.4" style="font-family:'MyriadPro-Regular'; font-size:12px;">&lt;title&gt;linkedin-square&lt;/title&gt;</tspan><tspan x="0" y="28.8" style="font-family:'MyriadPro-Regular'; font-size:12px;">&lt;path d=&quot;M3.703 22.094h3.609v-10.844h-3.609v10.844zM7.547 7.906c-0.016-1.062-0.781-1.875-2.016-1.875s-2.047 0.812-2.047 1.875c0 1.031 0.781 1.875 2 1.875h0.016c1.266 0 2.047-0.844 2.047-1.875zM16.688 22.094h3.609v-6.219c0-3.328-1.781-4.875-4.156-4.875-1.937 0-2.797 1.078-3.266 1.828h0.031v-1.578h-3.609s0.047 1.016 0 10.844v0h3.609v-6.062c0-0.313 0.016-0.641 0.109-0.875 0.266-0.641 0.859-1.313 1.859-1.313 1.297 0 1.813 0.984 1.813 2.453v5.797zM24 6.5v15c0 2.484-2.016 4.5-4.5 4.5h-15c-2.484 0-4.5-2.016-4.5-4.5v-15c0-2.484 2.016-4.5 4.5-4.5h15c2.484 0 4.5 2.016 4.5 4.5z&quot;&gt;&lt;/path&gt;</tspan><tspan x="0" y="43.2" style="font-family:'MyriadPro-Regular'; font-size:12px;">&lt;/symbol&gt;</tspan></text>
</svg>
